<svg width="103" height="125" viewBox="0 0 103 125" fill="none" xmlns="http://www.w3.org/2000/svg">
<path fill-rule="evenodd" clip-rule="evenodd" d="M0 15C0 6.71573 6.71573 0 15 0H29C37.2843 0 44 6.71573 44 15V22.6615C47.4028 9.6151 59.0969 0 73 0C89.5685 0 103 13.6553 103 30.5C103 47.3447 89.5685 61 73 61C71.9542 61 70.9209 60.9456 69.9026 60.8394C70.436 60.77 70.9737 60.7146 71.5153 60.6733V60.4968C55.8924 59.3078 43.5861 46.2548 43.5861 30.3274C43.5861 29.5443 43.6158 28.7681 43.6742 28H43.4971C43.5555 28.7681 43.5853 29.5443 43.5853 30.3274C43.5853 47.0382 30.0384 60.585 13.3276 60.585C12.5444 60.585 11.7682 60.5553 11 60.4968V60.6733C11.7682 60.6148 12.5444 60.5851 13.3276 60.5851C30.0384 60.5851 43.5853 74.1319 43.5853 90.8427C43.5853 91.6259 43.5555 92.4021 43.4971 93.1704H43.6743C43.6158 92.4021 43.5861 91.6259 43.5861 90.8427C43.5861 86.9319 44.328 83.1944 45.6788 79.7633C50.3993 68.6953 60.8572 61 73 61C89.5685 61 103 75.3269 103 93C103 110.673 89.5685 125 73 125C59.0969 125 47.4028 114.912 44 101.224V110C44 118.284 37.2843 125 29 125H15C6.71573 125 0 118.284 0 110V15Z" fill="url(#paint0_linear_85_13)"/>
<defs>
<linearGradient id="paint0_linear_85_13" x1="-6.3352e-07" y1="-3.5" x2="70" y2="125" gradientUnits="userSpaceOnUse">
<stop stop-color="#E40CB5"/>
<stop offset="1" stop-color="#4E0DD8"/>
</linearGradient>
</defs>
</svg>
